<svg width="41" height="42" viewBox="0 0 41 42" fill="none" xmlns="http://www.w3.org/2000/svg">
<path d="M30.5052 23.0006V17.6642C30.5028 15.2865 29.6591 12.9864 28.1233 11.1712C26.5876 9.35597 24.4591 8.1428 22.1147 7.74652V5.91738C22.1147 5.47231 21.9379 5.04548 21.6231 4.73077C21.3084 4.41606 20.8816 4.23926 20.4365 4.23926C19.9915 4.23926 19.5646 4.41606 19.2499 4.73077C18.9352 5.04548 18.7584 5.47231 18.7584 5.91738V7.74652C16.414 8.1428 14.2854 9.35597 12.7497 11.1712C11.214 12.9864 10.3702 15.2865 10.3678 17.6642V23.0006C9.38857 23.3468 8.54036 23.9875 7.93949 24.8347C7.33863 25.6819 7.01452 26.6942 7.0116 27.7329V31.0891C7.0116 31.5342 7.1884 31.961 7.50311 32.2757C7.81781 32.5905 8.24465 32.7673 8.68971 32.7673H13.959C14.3454 34.1892 15.1891 35.4446 16.3597 36.3395C17.5304 37.2345 18.963 37.7194 20.4365 37.7194C21.9101 37.7194 23.3427 37.2345 24.5134 36.3395C25.684 35.4446 26.5276 34.1892 26.9141 32.7673H32.1834C32.6284 32.7673 33.0553 32.5905 33.37 32.2757C33.6847 31.961 33.8615 31.5342 33.8615 31.0891V27.7329C33.8586 26.6942 33.5344 25.6819 32.9336 24.8347C32.3327 23.9875 31.4845 23.3468 30.5052 23.0006ZM13.7241 17.6642C13.7241 15.8839 14.4313 14.1766 15.6901 12.9178C16.9489 11.6589 18.6563 10.9517 20.4365 10.9517C22.2168 10.9517 23.9241 11.6589 25.183 12.9178C26.4418 14.1766 27.149 15.8839 27.149 17.6642V22.6985H13.7241V17.6642ZM20.4365 34.4454C19.8508 34.4418 19.2762 34.2851 18.7699 33.9907C18.2635 33.6963 17.843 33.2745 17.5502 32.7673H23.3229C23.0301 33.2745 22.6095 33.6963 22.1032 33.9907C21.5968 34.2851 21.0222 34.4418 20.4365 34.4454ZM30.5052 29.411H10.3678V27.7329C10.3678 27.2878 10.5446 26.861 10.8593 26.5463C11.174 26.2316 11.6009 26.0548 12.0459 26.0548H28.8271C29.2722 26.0548 29.699 26.2316 30.0137 26.5463C30.3284 26.861 30.5052 27.2878 30.5052 27.7329V29.411Z" fill="#346DF6"/>
</svg>
