<svg width="41" height="42" viewBox="0 0 41 42" fill="none" xmlns="http://www.w3.org/2000/svg">
<path d="M32.1834 21.0793H20.4366V9.33245C20.4366 8.32558 19.7653 7.65433 18.7585 7.65433C10.3679 7.65433 3.6554 14.3668 3.6554 22.7574C3.6554 31.148 10.3679 37.8604 18.7585 37.8604C27.149 37.8604 33.8615 31.148 33.8615 22.7574C33.8615 21.7505 33.1903 21.0793 32.1834 21.0793ZM20.4366 34.3364C14.0597 35.3433 8.0185 30.8124 7.17944 24.4355C6.17257 18.0587 10.7035 12.0174 17.0803 11.1784V22.7574C17.0803 23.7643 17.7516 24.4355 18.7585 24.4355H30.3375C29.6662 29.6377 25.6387 33.6652 20.4366 34.3364ZM25.4709 4.2981C24.4641 4.2981 23.7928 4.96934 23.7928 5.97621V16.0449C23.7928 17.0518 24.4641 17.723 25.4709 17.723H35.5396C36.5465 17.723 37.2177 17.0518 37.2177 16.0449C37.2177 9.50026 32.0156 4.2981 25.4709 4.2981ZM27.149 14.3668V7.82214C30.5053 8.49339 33.0225 11.0106 33.6937 14.3668H27.149Z" fill="#346DF6"/>
</svg>
