<svg width="41" height="42" viewBox="0 0 41 42" fill="none" xmlns="http://www.w3.org/2000/svg">
<path d="M24.7157 21.419C25.6111 20.6439 26.3293 19.6853 26.8216 18.6081C27.3138 17.531 27.5685 16.3606 27.5685 15.1764C27.5685 12.951 26.6845 10.8169 25.111 9.24331C23.5374 7.66977 21.4033 6.78577 19.1779 6.78577C16.9526 6.78577 14.8184 7.66977 13.2449 9.24331C11.6714 10.8169 10.7874 12.951 10.7874 15.1764C10.7977 16.3671 11.0655 17.5416 11.5724 18.6191C12.0793 19.6966 12.8133 20.6517 13.7241 21.419C11.3749 22.4827 9.38188 24.2005 7.98319 26.367C6.58451 28.5334 5.83938 31.0569 5.83691 33.6356C5.83691 34.0807 6.01372 34.5075 6.32842 34.8223C6.64313 35.137 7.06997 35.3138 7.51503 35.3138C7.9601 35.3138 8.38693 35.137 8.70164 34.8223C9.01635 34.5075 9.19315 34.0807 9.19315 33.6356C9.19315 30.9653 10.254 28.4042 12.1422 26.516C14.0305 24.6277 16.5915 23.5669 19.2619 23.5669C21.9322 23.5669 24.4933 24.6277 26.3815 26.516C28.2698 28.4042 29.3306 30.9653 29.3306 33.6356C29.3306 34.0807 29.5074 34.5075 29.8221 34.8223C30.1368 35.137 30.5636 35.3138 31.0087 35.3138C31.4537 35.3138 31.8806 35.137 32.1953 34.8223C32.51 34.5075 32.6868 34.0807 32.6868 33.6356C32.677 31.0477 31.9195 28.5177 30.5053 26.3502C29.0911 24.1828 27.0806 22.4703 24.7157 21.419V21.419ZM19.1779 20.2107C18.1822 20.2107 17.2089 19.9154 16.381 19.3623C15.5531 18.8091 14.9079 18.0228 14.5268 17.1029C14.1458 16.183 14.0461 15.1708 14.2403 14.1942C14.4346 13.2176 14.9141 12.3206 15.6181 11.6165C16.3222 10.9125 17.2192 10.433 18.1958 10.2387C19.1724 10.0445 20.1846 10.1442 21.1045 10.5252C22.0244 10.9063 22.8107 11.5515 23.3639 12.3794C23.917 13.2073 24.2123 14.1807 24.2123 15.1764C24.2123 16.5115 23.6819 17.7921 22.7378 18.7362C21.7936 19.6803 20.5131 20.2107 19.1779 20.2107ZM33.4419 11.8201C32.9969 11.8201 32.57 11.9969 32.2553 12.3116C31.9406 12.6263 31.7638 13.0532 31.7638 13.4982V16.8545C31.7638 17.2995 31.9406 17.7264 32.2553 18.0411C32.57 18.3558 32.9969 18.5326 33.4419 18.5326C33.887 18.5326 34.3138 18.3558 34.6286 18.0411C34.9433 17.7264 35.1201 17.2995 35.1201 16.8545V13.4982C35.1201 13.0532 34.9433 12.6263 34.6286 12.3116C34.3138 11.9969 33.887 11.8201 33.4419 11.8201ZM32.1834 20.6974C31.8767 21.0189 31.7029 21.4445 31.6967 21.8888C31.6954 22.1097 31.7378 22.3286 31.8213 22.5331C31.9048 22.7375 32.0278 22.9235 32.1834 23.0803C32.3465 23.2285 32.5338 23.3477 32.7371 23.4327C32.938 23.5215 33.1552 23.5673 33.3748 23.5673C33.5944 23.5673 33.8116 23.5215 34.0125 23.4327C34.2208 23.3573 34.4099 23.2371 34.5665 23.0805C34.7231 22.9239 34.8433 22.7348 34.9187 22.5265C35.0126 22.3274 35.0586 22.109 35.0529 21.8888C35.0549 21.5555 34.9575 21.2292 34.7733 20.9514C34.589 20.6736 34.3262 20.457 34.0184 20.3292C33.7105 20.2014 33.3716 20.1682 33.0448 20.2337C32.718 20.2993 32.4181 20.4607 32.1834 20.6974Z" fill="#346DF6"/>
</svg>
